<svg xmlns="http://www.w3.org/2000/svg" xmlns:xlink="http://www.w3.org/1999/xlink" width="500" zoomAndPan="magnify" viewBox="0 0 375 374.999991" height="500" preserveAspectRatio="xMidYMid meet" version="1.0"><defs><g/><clipPath id="28ffe6dc88"><path d="M 129.0625 100 L 171 100 L 171 161 L 129.0625 161 Z M 129.0625 100 " clip-rule="nonzero"/></clipPath><clipPath id="7184d3419a"><path d="M 167 85.21875 L 208 85.21875 L 208 175.96875 L 167 175.96875 Z M 167 85.21875 " clip-rule="nonzero"/></clipPath></defs><path fill="#232526" d="M 165.929688 159.199219 C 165.285156 159.199219 164.648438 158.984375 164.140625 158.578125 L 131.453125 132.863281 C 130.75 132.308594 130.347656 131.480469 130.347656 130.589844 C 130.347656 129.695312 130.75 128.867188 131.453125 128.308594 L 164.140625 102.597656 C 164.648438 102.191406 165.285156 101.976562 165.929688 101.976562 C 166.824219 101.976562 167.65625 102.375 168.203125 103.082031 C 168.683594 103.6875 168.898438 104.445312 168.804688 105.210938 C 168.71875 105.980469 168.328125 106.664062 167.722656 107.144531 L 137.929688 130.589844 L 167.722656 154.027344 C 168.328125 154.511719 168.71875 155.195312 168.804688 155.960938 C 168.898438 156.730469 168.683594 157.484375 168.203125 158.097656 C 167.65625 158.796875 166.824219 159.199219 165.929688 159.199219 " fill-opacity="1" fill-rule="nonzero"/><g clip-path="url(#28ffe6dc88)"><path fill="#232526" d="M 165.929688 100.742188 C 165.007812 100.742188 164.105469 101.054688 163.382812 101.625 L 130.691406 127.34375 C 129.6875 128.136719 129.117188 129.316406 129.117188 130.589844 C 129.117188 131.859375 129.691406 133.042969 130.691406 133.832031 L 163.382812 159.550781 C 164.101562 160.117188 165.007812 160.433594 165.929688 160.433594 C 167.207031 160.433594 168.390625 159.855469 169.175781 158.855469 C 169.863281 157.992188 170.164062 156.914062 170.035156 155.816406 C 169.902344 154.722656 169.351562 153.742188 168.484375 153.0625 L 139.921875 130.589844 L 168.484375 108.117188 C 169.351562 107.429688 169.902344 106.453125 170.035156 105.359375 C 170.164062 104.265625 169.863281 103.183594 169.175781 102.316406 C 168.390625 101.316406 167.203125 100.742188 165.929688 100.742188 Z M 165.929688 103.207031 C 166.425781 103.207031 166.914062 103.425781 167.238281 103.839844 C 167.808594 104.566406 167.683594 105.609375 166.960938 106.175781 L 135.933594 130.589844 L 166.960938 155 C 167.683594 155.566406 167.808594 156.613281 167.238281 157.332031 C 166.914062 157.75 166.425781 157.96875 165.929688 157.96875 C 165.570312 157.96875 165.210938 157.855469 164.90625 157.613281 L 132.214844 131.894531 C 131.816406 131.578125 131.582031 131.097656 131.582031 130.589844 C 131.582031 130.074219 131.816406 129.597656 132.214844 129.28125 L 164.90625 103.5625 C 165.207031 103.324219 165.570312 103.207031 165.929688 103.207031 " fill-opacity="1" fill-rule="nonzero"/></g><path fill="#232526" d="M 209.0625 159.199219 C 208.167969 159.199219 207.339844 158.796875 206.78125 158.097656 C 205.796875 156.84375 206.011719 155.019531 207.269531 154.027344 L 237.066406 130.589844 L 207.269531 107.144531 C 206.011719 106.15625 205.796875 104.332031 206.78125 103.082031 C 207.339844 102.375 208.167969 101.976562 209.0625 101.976562 C 209.707031 101.976562 210.34375 102.191406 210.851562 102.597656 L 243.542969 128.308594 C 244.242188 128.867188 244.640625 129.695312 244.640625 130.589844 C 244.640625 131.480469 244.242188 132.308594 243.535156 132.863281 L 210.851562 158.578125 C 210.34375 158.984375 209.707031 159.199219 209.0625 159.199219 " fill-opacity="1" fill-rule="nonzero"/><path fill="#232526" d="M 209.0625 100.742188 C 207.789062 100.742188 206.605469 101.316406 205.816406 102.316406 C 204.40625 104.105469 204.714844 106.707031 206.507812 108.117188 L 235.070312 130.589844 L 206.507812 153.0625 C 204.714844 154.464844 204.40625 157.070312 205.816406 158.855469 C 206.605469 159.855469 207.789062 160.433594 209.0625 160.433594 C 209.984375 160.433594 210.886719 160.117188 211.609375 159.550781 L 244.300781 133.832031 C 245.300781 133.042969 245.875 131.859375 245.875 130.589844 C 245.875 129.316406 245.300781 128.136719 244.304688 127.34375 L 211.617188 101.625 C 210.890625 101.054688 209.984375 100.742188 209.0625 100.742188 Z M 209.0625 103.207031 C 209.421875 103.207031 209.785156 103.324219 210.085938 103.5625 L 242.777344 129.28125 C 243.175781 129.597656 243.410156 130.074219 243.410156 130.589844 C 243.410156 131.097656 243.175781 131.578125 242.777344 131.894531 L 210.085938 157.613281 C 209.785156 157.855469 209.421875 157.96875 209.0625 157.96875 C 208.566406 157.96875 208.078125 157.75 207.753906 157.332031 C 207.1875 156.613281 207.3125 155.566406 208.03125 155 L 239.058594 130.589844 L 208.03125 106.175781 C 207.3125 105.609375 207.1875 104.566406 207.753906 103.839844 C 208.078125 103.425781 208.574219 103.207031 209.0625 103.207031 " fill-opacity="1" fill-rule="nonzero"/><path fill="#232526" d="M 171.253906 174.71875 C 170.890625 174.71875 170.542969 174.652344 170.207031 174.523438 C 169.488281 174.242188 168.914062 173.699219 168.605469 172.992188 C 168.289062 172.285156 168.273438 171.5 168.550781 170.78125 L 200.476562 88.304688 C 200.90625 87.203125 201.988281 86.457031 203.171875 86.457031 C 203.53125 86.457031 203.886719 86.527344 204.222656 86.652344 C 205.707031 87.230469 206.453125 88.914062 205.875 90.402344 L 173.953125 172.871094 C 173.527344 173.976562 172.4375 174.71875 171.253906 174.71875 " fill-opacity="1" fill-rule="nonzero"/><g clip-path="url(#7184d3419a)"><path fill="#232526" d="M 203.171875 85.222656 C 201.480469 85.222656 199.933594 86.289062 199.328125 87.863281 L 167.402344 170.332031 C 167.007812 171.359375 167.03125 172.480469 167.472656 173.492188 C 167.921875 174.496094 168.730469 175.277344 169.761719 175.671875 C 170.242188 175.859375 170.738281 175.953125 171.253906 175.953125 C 172.945312 175.953125 174.492188 174.890625 175.101562 173.3125 L 207.023438 90.847656 C 207.847656 88.71875 206.789062 86.324219 204.664062 85.503906 C 204.1875 85.316406 203.6875 85.222656 203.171875 85.222656 Z M 203.171875 87.691406 C 203.375 87.691406 203.578125 87.730469 203.773438 87.804688 C 204.632812 88.132812 205.058594 89.09375 204.726562 89.953125 L 172.800781 172.421875 C 172.550781 173.082031 171.917969 173.488281 171.253906 173.488281 C 171.050781 173.488281 170.847656 173.453125 170.648438 173.375 C 169.792969 173.042969 169.367188 172.078125 169.703125 171.222656 L 201.625 88.753906 C 201.882812 88.09375 202.507812 87.691406 203.171875 87.691406 " fill-opacity="1" fill-rule="nonzero"/></g><g fill="#232526" fill-opacity="1"><g transform="translate(38.074203, 264.773932)"><g><path d="M 30.210938 -12.308594 L 14.308594 -64.820312 L 0.800781 -64.820312 L 21.101562 0 L 39.324219 0 L 59.785156 -64.820312 L 46.359375 -64.820312 Z M 30.210938 -12.308594 "/></g></g></g><g fill="#232526" fill-opacity="1"><g transform="translate(95.617685, 264.773932)"><g><path d="M 10.628906 -51.871094 C 14.148438 -51.871094 16.945312 -53.632812 16.945312 -57.46875 C 16.945312 -60.90625 14.386719 -62.984375 10.628906 -62.984375 C 6.953125 -62.984375 4.316406 -60.90625 4.316406 -57.46875 C 4.316406 -53.632812 7.195312 -51.871094 10.628906 -51.871094 Z M 17.023438 0 L 17.023438 -45.878906 L 4.316406 -45.878906 L 4.316406 0 Z M 17.023438 0 "/></g></g></g><g fill="#232526" fill-opacity="1"><g transform="translate(113.919493, 264.773932)"><g><path d="M 17.023438 0 L 17.023438 -35.566406 C 19.980469 -36.046875 22.859375 -36.367188 25.097656 -36.367188 C 31.011719 -36.367188 34.207031 -34.207031 34.207031 -28.453125 L 34.207031 0 L 46.835938 0 L 46.835938 -29.972656 C 46.835938 -43.71875 37.007812 -47.714844 25.65625 -47.714844 C 21.019531 -47.714844 11.988281 -46.675781 4.316406 -45.320312 L 4.316406 0 Z M 17.023438 0 "/></g></g></g><g fill="#232526" fill-opacity="1"><g transform="translate(162.112106, 264.773932)"><g><path d="M 10.628906 -51.871094 C 14.148438 -51.871094 16.945312 -53.632812 16.945312 -57.46875 C 16.945312 -60.90625 14.386719 -62.984375 10.628906 -62.984375 C 6.953125 -62.984375 4.316406 -60.90625 4.316406 -57.46875 C 4.316406 -53.632812 7.195312 -51.871094 10.628906 -51.871094 Z M 17.023438 0 L 17.023438 -45.878906 L 4.316406 -45.878906 L 4.316406 0 Z M 17.023438 0 "/></g></g></g><g fill="#232526" fill-opacity="1"><g transform="translate(180.413908, 264.773932)"><g><path d="M 28.132812 1.199219 C 33.648438 1.199219 39.644531 -0.160156 43.960938 -2.558594 L 39.003906 -11.988281 C 35.808594 -10.3125 32.53125 -9.351562 28.773438 -9.351562 C 20.621094 -9.351562 15.984375 -15.265625 15.984375 -23.179688 L 15.984375 -23.339844 C 15.984375 -31.332031 20.621094 -37.085938 28.773438 -37.085938 C 32.53125 -37.085938 35.886719 -36.046875 39.003906 -34.367188 L 44.039062 -43.800781 C 39.644531 -46.277344 33.648438 -47.714844 28.132812 -47.714844 C 13.027344 -47.714844 3.195312 -37.644531 3.195312 -23.339844 L 3.195312 -23.179688 C 3.195312 -8.792969 13.109375 1.199219 28.132812 1.199219 Z M 28.132812 1.199219 "/></g></g></g><g fill="#232526" fill-opacity="1"><g transform="translate(223.331676, 264.773932)"><g><path d="M 10.628906 -51.871094 C 14.148438 -51.871094 16.945312 -53.632812 16.945312 -57.46875 C 16.945312 -60.90625 14.386719 -62.984375 10.628906 -62.984375 C 6.953125 -62.984375 4.316406 -60.90625 4.316406 -57.46875 C 4.316406 -53.632812 7.195312 -51.871094 10.628906 -51.871094 Z M 17.023438 0 L 17.023438 -45.878906 L 4.316406 -45.878906 L 4.316406 0 Z M 17.023438 0 "/></g></g></g><g fill="#232526" fill-opacity="1"><g transform="translate(241.633479, 264.773932)"><g><path d="M 25.578125 1.277344 C 30.210938 1.277344 39.246094 0.238281 46.835938 -1.117188 L 46.835938 -45.878906 L 34.207031 -45.878906 L 34.207031 -10.390625 C 31.25 -9.832031 28.375 -9.589844 26.136719 -9.589844 C 20.140625 -9.589844 17.023438 -11.667969 17.023438 -17.503906 L 17.023438 -45.878906 L 4.316406 -45.878906 L 4.316406 -16.464844 C 4.316406 -2.71875 14.226562 1.277344 25.578125 1.277344 Z M 25.578125 1.277344 "/></g></g></g><g fill="#232526" fill-opacity="1"><g transform="translate(289.826102, 264.773932)"><g><path d="M 23.417969 1.039062 C 37.085938 1.039062 43.878906 -3.917969 43.878906 -13.828125 C 43.878906 -21.101562 39.085938 -25.578125 28.773438 -28.453125 L 25.496094 -29.332031 C 19.980469 -30.933594 17.742188 -32.050781 17.742188 -34.367188 C 17.742188 -36.925781 20.460938 -37.804688 25.097656 -37.804688 C 29.015625 -37.804688 34.527344 -36.925781 38.605469 -34.769531 L 42.28125 -43.640625 C 37.566406 -46.117188 30.53125 -47.636719 23.578125 -47.636719 C 11.667969 -47.636719 4.957031 -42.441406 4.957031 -33.96875 C 4.957031 -26.375 9.273438 -21.898438 18.863281 -19.34375 L 23.179688 -18.222656 C 29.894531 -16.386719 31.410156 -15.347656 31.410156 -12.867188 C 31.410156 -9.511719 27.734375 -8.792969 22.300781 -8.792969 C 17.664062 -8.792969 12.070312 -9.832031 6.714844 -12.148438 L 3.277344 -2.957031 C 9.832031 -0.238281 16.226562 1.039062 23.417969 1.039062 Z M 23.417969 1.039062 "/></g></g></g></svg>