<svg xmlns="http://www.w3.org/2000/svg" xmlns:xlink="http://www.w3.org/1999/xlink" width="500" zoomAndPan="magnify" viewBox="0 0 375 374.999991" height="500" preserveAspectRatio="xMidYMid meet" version="1.0"><defs><g/><clipPath id="5ee6292d3f"><path d="M 7 57 L 364 57 L 364 340 L 7 340 Z M 7 57 " clip-rule="nonzero"/></clipPath><clipPath id="06337ca008"><path d="M -334.808594 125.671875 L 217.875 -245.941406 L 589.488281 306.742188 L 36.804688 678.355469 Z M -334.808594 125.671875 " clip-rule="nonzero"/></clipPath><clipPath id="60a619a466"><path d="M -174.253906 117.136719 L 258.304688 -173.710938 L 548.734375 258.226562 L 116.171875 549.074219 Z M -174.253906 117.136719 " clip-rule="nonzero"/></clipPath><clipPath id="ccf2a6dbb5"><path d="M -334.792969 125.671875 L 217.886719 -245.941406 L 589.503906 306.738281 L 36.820312 678.355469 Z M -334.792969 125.671875 " clip-rule="nonzero"/></clipPath><clipPath id="f179119064"><path d="M 129.0625 113 L 171 113 L 171 173 L 129.0625 173 Z M 129.0625 113 " clip-rule="nonzero"/></clipPath><clipPath id="c9f679ba59"><path d="M 167 97.617188 L 208 97.617188 L 208 188.367188 L 167 188.367188 Z M 167 97.617188 " clip-rule="nonzero"/></clipPath></defs><g clip-path="url(#5ee6292d3f)"><g clip-path="url(#06337ca008)"><g clip-path="url(#60a619a466)"><g clip-path="url(#ccf2a6dbb5)"><path fill="#FE705A" d="M 280.558594 71.058594 C 341.375 106.007812 382.8125 215.382812 353.496094 275.625 C 323.902344 336.050781 222.90625 346.976562 147.222656 336.46875 C 71.078125 325.871094 20.0625 293.5625 9.742188 253.152344 C -0.574219 212.738281 29.527344 164.410156 84.765625 120.042969 C 139.730469 75.863281 219.738281 36.113281 280.558594 71.058594 Z M 280.558594 71.058594 " fill-opacity="1" fill-rule="nonzero"/></g></g></g></g><path fill="#ffffff" d="M 165.929688 171.597656 C 165.285156 171.597656 164.648438 171.378906 164.140625 170.976562 L 131.453125 145.257812 C 130.75 144.707031 130.347656 143.878906 130.347656 142.984375 C 130.347656 142.09375 130.75 141.265625 131.453125 140.707031 L 164.140625 114.996094 C 164.648438 114.589844 165.285156 114.371094 165.929688 114.371094 C 166.824219 114.371094 167.65625 114.773438 168.203125 115.476562 C 168.683594 116.085938 168.898438 116.84375 168.804688 117.609375 C 168.71875 118.378906 168.328125 119.0625 167.722656 119.539062 L 137.929688 142.984375 L 167.722656 166.425781 C 168.328125 166.90625 168.71875 167.59375 168.804688 168.355469 C 168.898438 169.125 168.683594 169.882812 168.203125 170.492188 C 167.65625 171.191406 166.824219 171.597656 165.929688 171.597656 " fill-opacity="1" fill-rule="nonzero"/><g clip-path="url(#f179119064)"><path fill="#ffffff" d="M 165.929688 113.140625 C 165.007812 113.140625 164.105469 113.449219 163.382812 114.023438 L 130.691406 139.738281 C 129.6875 140.535156 129.117188 141.710938 129.117188 142.984375 C 129.117188 144.257812 129.691406 145.441406 130.691406 146.230469 L 163.382812 171.945312 C 164.101562 172.515625 165.007812 172.828125 165.929688 172.828125 C 167.207031 172.828125 168.390625 172.253906 169.175781 171.25 C 169.863281 170.390625 170.164062 169.308594 170.035156 168.214844 C 169.902344 167.121094 169.351562 166.136719 168.484375 165.457031 L 139.921875 142.984375 L 168.484375 120.511719 C 169.351562 119.828125 169.902344 118.851562 170.035156 117.753906 C 170.164062 116.660156 169.863281 115.582031 169.175781 114.714844 C 168.390625 113.710938 167.203125 113.140625 165.929688 113.140625 Z M 165.929688 115.605469 C 166.425781 115.605469 166.914062 115.824219 167.238281 116.238281 C 167.808594 116.960938 167.683594 118.007812 166.960938 118.574219 L 135.933594 142.984375 L 166.960938 167.394531 C 167.683594 167.960938 167.808594 169.007812 167.238281 169.726562 C 166.914062 170.148438 166.425781 170.363281 165.929688 170.363281 C 165.570312 170.363281 165.210938 170.25 164.90625 170.007812 L 132.214844 144.292969 C 131.816406 143.976562 131.582031 143.492188 131.582031 142.984375 C 131.582031 142.472656 131.816406 141.992188 132.214844 141.679688 L 164.90625 115.960938 C 165.207031 115.71875 165.570312 115.605469 165.929688 115.605469 " fill-opacity="1" fill-rule="nonzero"/></g><path fill="#ffffff" d="M 209.0625 171.597656 C 208.167969 171.597656 207.339844 171.191406 206.78125 170.492188 C 205.796875 169.238281 206.011719 167.414062 207.269531 166.425781 L 237.066406 142.984375 L 207.269531 119.539062 C 206.011719 118.554688 205.796875 116.730469 206.78125 115.476562 C 207.339844 114.773438 208.167969 114.371094 209.0625 114.371094 C 209.707031 114.371094 210.34375 114.589844 210.851562 114.992188 L 243.542969 140.707031 C 244.242188 141.265625 244.640625 142.09375 244.640625 142.984375 C 244.640625 143.878906 244.242188 144.707031 243.535156 145.257812 L 210.851562 170.976562 C 210.34375 171.378906 209.707031 171.597656 209.0625 171.597656 " fill-opacity="1" fill-rule="nonzero"/><path fill="#ffffff" d="M 209.0625 113.140625 C 207.789062 113.140625 206.605469 113.710938 205.816406 114.714844 C 204.40625 116.503906 204.714844 119.101562 206.507812 120.511719 L 235.070312 142.984375 L 206.507812 165.457031 C 204.714844 166.863281 204.40625 169.464844 205.816406 171.25 C 206.605469 172.253906 207.789062 172.828125 209.0625 172.828125 C 209.984375 172.828125 210.886719 172.515625 211.609375 171.945312 L 244.300781 146.230469 C 245.300781 145.441406 245.875 144.257812 245.875 142.984375 C 245.875 141.710938 245.300781 140.535156 244.304688 139.738281 L 211.617188 114.023438 C 210.890625 113.449219 209.984375 113.140625 209.0625 113.140625 Z M 209.0625 115.605469 C 209.421875 115.605469 209.785156 115.71875 210.085938 115.960938 L 242.777344 141.679688 C 243.175781 141.992188 243.410156 142.472656 243.410156 142.984375 C 243.410156 143.492188 243.175781 143.976562 242.777344 144.292969 L 210.085938 170.007812 C 209.785156 170.25 209.421875 170.363281 209.0625 170.363281 C 208.566406 170.363281 208.078125 170.148438 207.753906 169.726562 C 207.1875 169.007812 207.3125 167.960938 208.03125 167.394531 L 239.058594 142.984375 L 208.03125 118.574219 C 207.3125 118.007812 207.1875 116.960938 207.753906 116.238281 C 208.078125 115.824219 208.574219 115.605469 209.0625 115.605469 " fill-opacity="1" fill-rule="nonzero"/><path fill="#ffffff" d="M 171.253906 187.117188 C 170.890625 187.117188 170.542969 187.046875 170.207031 186.917969 C 169.488281 186.636719 168.914062 186.09375 168.605469 185.390625 C 168.289062 184.679688 168.273438 183.894531 168.550781 183.175781 L 200.476562 100.703125 C 200.90625 99.597656 201.988281 98.855469 203.171875 98.855469 C 203.53125 98.855469 203.886719 98.921875 204.222656 99.050781 C 205.707031 99.628906 206.453125 101.308594 205.875 102.796875 L 173.953125 185.265625 C 173.527344 186.371094 172.4375 187.117188 171.253906 187.117188 " fill-opacity="1" fill-rule="nonzero"/><g clip-path="url(#c9f679ba59)"><path fill="#ffffff" d="M 203.171875 97.621094 C 201.480469 97.621094 199.933594 98.6875 199.328125 100.257812 L 167.402344 182.726562 C 167.007812 183.757812 167.03125 184.878906 167.472656 185.886719 C 167.921875 186.894531 168.730469 187.671875 169.761719 188.066406 C 170.242188 188.253906 170.738281 188.347656 171.253906 188.347656 C 172.945312 188.347656 174.492188 187.289062 175.101562 185.710938 L 207.023438 103.242188 C 207.847656 101.117188 206.789062 98.71875 204.664062 97.902344 C 204.1875 97.714844 203.6875 97.621094 203.171875 97.621094 Z M 203.171875 100.085938 C 203.375 100.085938 203.578125 100.125 203.773438 100.199219 C 204.632812 100.53125 205.058594 101.492188 204.726562 102.351562 L 172.800781 184.816406 C 172.550781 185.480469 171.917969 185.882812 171.253906 185.882812 C 171.050781 185.882812 170.847656 185.847656 170.648438 185.769531 C 169.792969 185.441406 169.367188 184.472656 169.703125 183.621094 L 201.625 101.152344 C 201.882812 100.492188 202.507812 100.085938 203.171875 100.085938 " fill-opacity="1" fill-rule="nonzero"/></g><g fill="#ffffff" fill-opacity="1"><g transform="translate(38.074203, 277.170627)"><g><path d="M 30.210938 -12.308594 L 14.308594 -64.820312 L 0.800781 -64.820312 L 21.101562 0 L 39.324219 0 L 59.785156 -64.820312 L 46.359375 -64.820312 Z M 30.210938 -12.308594 "/></g></g></g><g fill="#ffffff" fill-opacity="1"><g transform="translate(95.617685, 277.170627)"><g><path d="M 10.628906 -51.871094 C 14.148438 -51.871094 16.945312 -53.632812 16.945312 -57.46875 C 16.945312 -60.90625 14.386719 -62.984375 10.628906 -62.984375 C 6.953125 -62.984375 4.316406 -60.90625 4.316406 -57.46875 C 4.316406 -53.632812 7.195312 -51.871094 10.628906 -51.871094 Z M 17.023438 0 L 17.023438 -45.878906 L 4.316406 -45.878906 L 4.316406 0 Z M 17.023438 0 "/></g></g></g><g fill="#ffffff" fill-opacity="1"><g transform="translate(113.919493, 277.170627)"><g><path d="M 17.023438 0 L 17.023438 -35.566406 C 19.980469 -36.046875 22.859375 -36.367188 25.097656 -36.367188 C 31.011719 -36.367188 34.207031 -34.207031 34.207031 -28.453125 L 34.207031 0 L 46.835938 0 L 46.835938 -29.972656 C 46.835938 -43.71875 37.007812 -47.714844 25.65625 -47.714844 C 21.019531 -47.714844 11.988281 -46.675781 4.316406 -45.320312 L 4.316406 0 Z M 17.023438 0 "/></g></g></g><g fill="#ffffff" fill-opacity="1"><g transform="translate(162.112106, 277.170627)"><g><path d="M 10.628906 -51.871094 C 14.148438 -51.871094 16.945312 -53.632812 16.945312 -57.46875 C 16.945312 -60.90625 14.386719 -62.984375 10.628906 -62.984375 C 6.953125 -62.984375 4.316406 -60.90625 4.316406 -57.46875 C 4.316406 -53.632812 7.195312 -51.871094 10.628906 -51.871094 Z M 17.023438 0 L 17.023438 -45.878906 L 4.316406 -45.878906 L 4.316406 0 Z M 17.023438 0 "/></g></g></g><g fill="#ffffff" fill-opacity="1"><g transform="translate(180.413908, 277.170627)"><g><path d="M 28.132812 1.199219 C 33.648438 1.199219 39.644531 -0.160156 43.960938 -2.558594 L 39.003906 -11.988281 C 35.808594 -10.3125 32.53125 -9.351562 28.773438 -9.351562 C 20.621094 -9.351562 15.984375 -15.265625 15.984375 -23.179688 L 15.984375 -23.339844 C 15.984375 -31.332031 20.621094 -37.085938 28.773438 -37.085938 C 32.53125 -37.085938 35.886719 -36.046875 39.003906 -34.367188 L 44.039062 -43.800781 C 39.644531 -46.277344 33.648438 -47.714844 28.132812 -47.714844 C 13.027344 -47.714844 3.195312 -37.644531 3.195312 -23.339844 L 3.195312 -23.179688 C 3.195312 -8.792969 13.109375 1.199219 28.132812 1.199219 Z M 28.132812 1.199219 "/></g></g></g><g fill="#ffffff" fill-opacity="1"><g transform="translate(223.331676, 277.170627)"><g><path d="M 10.628906 -51.871094 C 14.148438 -51.871094 16.945312 -53.632812 16.945312 -57.46875 C 16.945312 -60.90625 14.386719 -62.984375 10.628906 -62.984375 C 6.953125 -62.984375 4.316406 -60.90625 4.316406 -57.46875 C 4.316406 -53.632812 7.195312 -51.871094 10.628906 -51.871094 Z M 17.023438 0 L 17.023438 -45.878906 L 4.316406 -45.878906 L 4.316406 0 Z M 17.023438 0 "/></g></g></g><g fill="#ffffff" fill-opacity="1"><g transform="translate(241.633479, 277.170627)"><g><path d="M 25.578125 1.277344 C 30.210938 1.277344 39.246094 0.238281 46.835938 -1.117188 L 46.835938 -45.878906 L 34.207031 -45.878906 L 34.207031 -10.390625 C 31.25 -9.832031 28.375 -9.589844 26.136719 -9.589844 C 20.140625 -9.589844 17.023438 -11.667969 17.023438 -17.503906 L 17.023438 -45.878906 L 4.316406 -45.878906 L 4.316406 -16.464844 C 4.316406 -2.71875 14.226562 1.277344 25.578125 1.277344 Z M 25.578125 1.277344 "/></g></g></g><g fill="#ffffff" fill-opacity="1"><g transform="translate(289.826102, 277.170627)"><g><path d="M 23.417969 1.039062 C 37.085938 1.039062 43.878906 -3.917969 43.878906 -13.828125 C 43.878906 -21.101562 39.085938 -25.578125 28.773438 -28.453125 L 25.496094 -29.332031 C 19.980469 -30.933594 17.742188 -32.050781 17.742188 -34.367188 C 17.742188 -36.925781 20.460938 -37.804688 25.097656 -37.804688 C 29.015625 -37.804688 34.527344 -36.925781 38.605469 -34.769531 L 42.28125 -43.640625 C 37.566406 -46.117188 30.53125 -47.636719 23.578125 -47.636719 C 11.667969 -47.636719 4.957031 -42.441406 4.957031 -33.96875 C 4.957031 -26.375 9.273438 -21.898438 18.863281 -19.34375 L 23.179688 -18.222656 C 29.894531 -16.386719 31.410156 -15.347656 31.410156 -12.867188 C 31.410156 -9.511719 27.734375 -8.792969 22.300781 -8.792969 C 17.664062 -8.792969 12.070312 -9.832031 6.714844 -12.148438 L 3.277344 -2.957031 C 9.832031 -0.238281 16.226562 1.039062 23.417969 1.039062 Z M 23.417969 1.039062 "/></g></g></g></svg>